<svg width="189" height="48" viewBox="0 0 189 48" fill="none" xmlns="http://www.w3.org/2000/svg">
<path d="M11.9024 7.62991C12.3571 8.08222 12.9447 8.37679 13.5789 8.47133C14.2136 8.56586 14.8614 8.45462 15.4281 8.1543C17.9151 6.80627 20.6857 6.0646 23.5143 5.99039C24.161 5.96689 24.7832 5.73552 25.287 5.33074C25.7914 4.92597 26.1509 4.3692 26.3126 3.74404C26.5464 2.83996 26.3445 1.87844 25.7663 1.14412C25.1881 0.409778 24.3002 -0.0132696 23.3646 0.000301584C19.5931 0.0969259 15.8974 1.07935 12.578 2.86764C11.7434 3.32046 11.1731 4.14098 11.0402 5.07954C10.9073 6.0181 11.2269 6.96406 11.9024 7.62991Z" fill="#FF4B4B"/>
<path d="M39.341 14.5415C39.6801 15.0883 40.1861 15.5114 40.7846 15.7485C41.3832 15.9861 42.0419 16.0248 42.6641 15.8592C43.574 15.6169 44.317 14.9624 44.6712 14.0907C45.0249 13.2195 44.9485 12.2333 44.4645 11.427C42.483 8.20918 39.7721 5.50109 36.5504 3.51996C35.7426 3.03684 34.7547 2.96059 33.8819 3.31365C33.0086 3.66672 32.353 4.40838 32.1101 5.31658C31.9443 5.9381 31.983 6.59566 32.221 7.19315C32.4586 7.79012 32.8824 8.29518 33.4303 8.63357C35.8383 10.1085 37.8632 12.1303 39.3408 14.5339L39.341 14.5415Z" fill="#FF4B4B"/>
<path d="M40.3554 36.0308C41.0226 36.6988 41.9664 37.0142 42.9021 36.8816C43.8382 36.7489 44.6566 36.1838 45.1112 35.3565C46.9085 32.0442 47.898 28.3552 47.999 24.5895C48.0247 23.5199 47.4763 22.5171 46.5607 21.9603C45.645 21.4036 44.5012 21.3764 43.5604 21.8893C42.6191 22.4022 42.0236 23.3773 41.9981 24.4475C41.9248 27.2679 41.1844 30.0308 39.8381 32.5116C39.5372 33.0773 39.4258 33.7238 39.52 34.3574C39.6147 34.9904 39.9103 35.577 40.3629 36.0309L40.3554 36.0308Z" fill="#FF4B4B"/>
<path d="M1.25108 31.546C1.51375 32.2672 1.54776 33.0512 1.34893 33.7924L0.366284 37.2369C-0.29038 39.4409 -0.0193445 41.8174 1.1161 43.8184C2.04381 45.3941 3.4696 46.6168 5.17023 47.2947C6.8702 47.9727 8.74818 48.0667 10.5079 47.5621L13.9209 46.5886C14.6922 46.3447 15.52 46.3447 16.2912 46.5886C18.7671 47.4566 21.3708 47.9069 23.9949 47.9215C24.7453 47.9215 25.5327 47.9215 26.2904 47.8165C29.4906 47.5057 32.594 46.5479 35.4116 45.0013C36.2697 44.4493 36.7877 43.4998 36.7868 42.4812C36.7857 41.4622 36.2656 40.5137 35.4064 39.9633C34.5478 39.4133 33.4672 39.3365 32.5391 39.7601C30.4335 40.9196 28.1135 41.6377 25.7202 41.8717C23.1861 42.1161 20.6285 41.8174 18.219 40.9953C17.2322 40.6396 16.193 40.4495 15.1439 40.4338C14.1764 40.4391 13.2147 40.578 12.2859 40.8459L8.87289 41.8195V41.819C8.38888 41.95 7.87559 41.9187 7.41095 41.7312C6.94631 41.5432 6.55598 41.2084 6.29958 40.7785C5.99243 40.192 5.93331 39.5073 6.13476 38.8763L7.12473 35.4396C7.65739 33.527 7.5946 31.498 6.94473 29.6218C5.34308 24.9144 5.79778 19.7516 8.19738 15.3954C8.50294 14.8287 8.61754 14.179 8.5244 13.5429C8.43126 12.9063 8.13511 12.3166 7.67988 11.8612C7.01379 11.1952 6.07302 10.8808 5.13952 11.0119C4.20552 11.143 3.38825 11.7045 2.93202 12.5276C1.34819 15.4034 0.381207 18.5768 0.0918742 21.8454C-0.197485 25.1143 0.197569 28.4079 1.25137 31.5161L1.25108 31.546Z" fill="#FF4B4B"/>
<path d="M19.4935 18.7196C19.4935 20.3737 18.1504 21.7144 16.4933 21.7144C14.8362 21.7144 13.493 20.3737 13.493 18.7196C13.493 17.0655 14.8362 15.7243 16.4933 15.7243C18.1504 15.7243 19.4935 17.0655 19.4935 18.7196Z" fill="#FF4B4B"/>
<path d="M34.4959 18.7195C34.4959 20.3736 33.1528 21.7142 31.4957 21.7142C29.8386 21.7142 28.4955 20.3736 28.4955 18.7195C28.4955 17.0654 29.8386 15.7242 31.4957 15.7242C33.1528 15.7242 34.4959 17.0654 34.4959 18.7195Z" fill="#FF4B4B"/>
<path d="M23.7026 33.6948H24.2875C26.9817 33.6958 29.4985 32.353 30.9934 30.1154C31.5888 29.2249 31.6621 28.0847 31.1869 27.1254C30.7113 26.1654 29.759 25.5318 28.689 25.4628C27.6185 25.3939 26.593 25.9 25.998 26.791C25.6165 27.3619 24.9751 27.7045 24.2874 27.7045H23.7025C23.0149 27.7045 22.3734 27.3619 21.9919 26.791C21.397 25.9 20.3714 25.3939 19.3009 25.4628C18.2308 25.5318 17.2785 26.1653 16.803 27.1254C16.3278 28.0848 16.4011 29.2249 16.9966 30.1154C18.4914 32.3529 21.0082 33.6957 23.7024 33.6948H23.7026Z" fill="#FF4B4B"/>
<path d="M61.8059 34.9608C61.5934 34.9608 61.4021 34.8864 61.232 34.7376C61.0619 34.5675 60.9769 34.3656 60.9769 34.1317V13.4698C60.9769 13.236 61.0619 13.0447 61.232 12.8959C61.4021 12.7258 61.5934 12.6408 61.8059 12.6408H67.2265C67.4603 12.6408 67.6516 12.7258 67.8004 12.8959C67.9705 13.0447 68.0555 13.236 68.0555 13.4698V34.1317C68.0555 34.3656 67.9705 34.5675 67.8004 34.7376C67.6516 34.8864 67.4603 34.9608 67.2265 34.9608H61.8059ZM72.51 34.9608C72.2762 34.9608 72.0743 34.8864 71.9042 34.7376C71.7554 34.5675 71.681 34.3656 71.681 34.1317V19.2092C71.681 18.9754 71.7554 18.7841 71.9042 18.6353C72.0743 18.4652 72.2762 18.3802 72.51 18.3802H77.1335C77.3673 18.3802 77.5586 18.4652 77.7074 18.6353C77.8775 18.7841 77.9625 18.9754 77.9625 19.2092V20.3571C78.5152 19.7194 79.2485 19.1774 80.1626 18.731C81.0767 18.2846 82.1183 18.0614 83.2874 18.0614C84.4353 18.0614 85.4769 18.3271 86.4122 18.8585C87.3475 19.3899 88.1021 20.1871 88.6761 21.2499C89.25 22.3128 89.537 23.652 89.537 25.2675V34.1317C89.537 34.3656 89.452 34.5675 89.2819 34.7376C89.1118 34.8864 88.9099 34.9608 88.6761 34.9608H83.6381C83.4043 34.9608 83.2024 34.8864 83.0323 34.7376C82.8835 34.5675 82.8091 34.3656 82.8091 34.1317V25.4907C82.8091 24.7042 82.6178 24.0984 82.2352 23.6732C81.8525 23.2481 81.3105 23.0355 80.609 23.0355C79.9075 23.0355 79.3548 23.2481 78.9509 23.6732C78.5471 24.0984 78.3451 24.7042 78.3451 25.4907V34.1317C78.3451 34.3656 78.2601 34.5675 78.09 34.7376C77.9412 34.8864 77.7499 34.9608 77.5161 34.9608H72.51ZM101.887 34.9608C100.441 34.9608 99.166 34.7482 98.0607 34.323C96.9765 33.8979 96.1263 33.207 95.5098 32.2505C94.9146 31.2726 94.617 29.9866 94.617 28.3923V23.2587H92.098C91.8642 23.2587 91.6623 23.1843 91.4922 23.0355C91.3434 22.8655 91.269 22.6635 91.269 22.4297V19.2092C91.269 18.9754 91.3434 18.7841 91.4922 18.6353C91.6623 18.4652 91.8642 18.3802 92.098 18.3802H94.617V13.151C94.617 12.9171 94.6914 12.7258 94.8402 12.577C95.0103 12.407 95.2122 12.3219 95.446 12.3219H100.069C100.303 12.3219 100.495 12.407 100.643 12.577C100.813 12.7258 100.898 12.9171 100.898 13.151V18.3802H104.916C105.15 18.3802 105.341 18.4652 105.49 18.6353C105.66 18.7841 105.745 18.9754 105.745 19.2092V22.4297C105.745 22.6635 105.66 22.8655 105.49 23.0355C105.341 23.1843 105.15 23.2587 104.916 23.2587H100.898V27.8503C100.898 28.4667 101.026 28.9556 101.281 29.317C101.536 29.6571 101.94 29.8272 102.493 29.8272H105.171C105.405 29.8272 105.596 29.9122 105.745 30.0823C105.915 30.2311 106 30.4224 106 30.6562V34.1317C106 34.3656 105.915 34.5675 105.745 34.7376C105.596 34.8864 105.405 34.9608 105.171 34.9608H101.887ZM116.778 35.2796C114.907 35.2796 113.323 35.0033 112.027 34.4506C110.751 33.8979 109.773 33.0901 109.093 32.0273C108.413 30.9432 108.03 29.6465 107.945 28.1372C107.924 27.6908 107.913 27.2019 107.913 26.6705C107.913 26.1391 107.924 25.6501 107.945 25.2037C108.03 23.6732 108.434 22.3766 109.157 21.3137C109.88 20.2508 110.879 19.4431 112.154 18.8904C113.451 18.3377 114.992 18.0614 116.778 18.0614C118.563 18.0614 120.094 18.3377 121.369 18.8904C122.666 19.4431 123.675 20.2508 124.398 21.3137C125.121 22.3766 125.525 23.6732 125.61 25.2037C125.652 25.6501 125.674 26.1391 125.674 26.6705C125.674 27.2019 125.652 27.6908 125.61 28.1372C125.525 29.6465 125.142 30.9432 124.462 32.0273C123.782 33.0901 122.793 33.8979 121.497 34.4506C120.221 35.0033 118.648 35.2796 116.778 35.2796ZM116.778 30.7837C117.564 30.7837 118.106 30.5499 118.404 30.0823C118.701 29.6146 118.871 28.9131 118.914 27.9778C118.935 27.6589 118.946 27.2232 118.946 26.6705C118.946 26.1178 118.935 25.682 118.914 25.3632C118.871 24.4491 118.701 23.7583 118.404 23.2906C118.106 22.8017 117.564 22.5572 116.778 22.5572C116.012 22.5572 115.481 22.8017 115.183 23.2906C114.886 23.7583 114.705 24.4491 114.641 25.3632C114.62 25.682 114.609 26.1178 114.609 26.6705C114.609 27.2232 114.62 27.6589 114.641 27.9778C114.705 28.9131 114.886 29.6146 115.183 30.0823C115.481 30.5499 116.012 30.7837 116.778 30.7837ZM134.473 35.2796C133.325 35.2796 132.273 35.0139 131.317 34.4825C130.381 33.951 129.637 33.1539 129.085 32.091C128.532 31.0282 128.256 29.689 128.256 28.0735V19.2092C128.256 18.9754 128.33 18.7841 128.479 18.6353C128.649 18.4652 128.851 18.3802 129.085 18.3802H134.123C134.356 18.3802 134.548 18.4652 134.697 18.6353C134.867 18.7841 134.952 18.9754 134.952 19.2092V27.8503C134.952 29.4871 135.685 30.3055 137.152 30.3055C137.853 30.3055 138.395 30.0929 138.778 29.6677C139.182 29.2426 139.384 28.6368 139.384 27.8503V19.2092C139.384 18.9754 139.458 18.7841 139.607 18.6353C139.777 18.4652 139.979 18.3802 140.213 18.3802H145.251C145.463 18.3802 145.655 18.4652 145.825 18.6353C145.995 18.7841 146.08 18.9754 146.08 19.2092V34.1317C146.08 34.3656 145.995 34.5675 145.825 34.7376C145.655 34.8864 145.463 34.9608 145.251 34.9608H140.595C140.362 34.9608 140.16 34.8864 139.99 34.7376C139.841 34.5675 139.766 34.3656 139.766 34.1317V32.9838C139.235 33.7704 138.512 34.3549 137.598 34.7376C136.684 35.0989 135.642 35.2796 134.473 35.2796ZM157.406 35.2796C155.812 35.2796 154.377 35.0033 153.102 34.4506C151.848 33.8766 150.838 33.0476 150.073 31.9635C149.329 30.8581 148.914 29.5296 148.829 27.9778C148.808 27.6377 148.797 27.2125 148.797 26.7024C148.797 26.1922 148.808 25.7564 148.829 25.3951C148.914 23.822 149.329 22.4935 150.073 21.4094C150.817 20.304 151.826 19.475 153.102 18.9223C154.377 18.3483 155.812 18.0614 157.406 18.0614C158.979 18.0614 160.319 18.2846 161.424 18.731C162.551 19.1774 163.454 19.73 164.134 20.389C164.836 21.048 165.356 21.707 165.697 22.3659C166.037 23.0249 166.217 23.5776 166.239 24.024C166.26 24.2578 166.175 24.4597 165.984 24.6298C165.813 24.7999 165.622 24.8849 165.41 24.8849H160.276C160.042 24.8849 159.862 24.8317 159.734 24.7255C159.606 24.5979 159.49 24.4279 159.383 24.2153C159.171 23.7476 158.926 23.4075 158.65 23.195C158.374 22.9611 158.002 22.8442 157.534 22.8442C156.875 22.8442 156.386 23.078 156.067 23.5457C155.748 23.9921 155.578 24.6617 155.557 25.5545C155.514 26.4473 155.514 27.2019 155.557 27.8184C155.599 28.7324 155.77 29.4127 156.067 29.8591C156.386 30.2842 156.875 30.4968 157.534 30.4968C158.065 30.4968 158.459 30.3905 158.714 30.1779C158.969 29.9441 159.192 29.5933 159.383 29.1257C159.468 28.9131 159.575 28.7537 159.702 28.6474C159.851 28.5199 160.042 28.4561 160.276 28.4561H165.41C165.622 28.4561 165.813 28.5411 165.984 28.7112C166.175 28.8812 166.26 29.0832 166.239 29.317C166.217 29.6146 166.1 30.0185 165.888 30.5286C165.697 31.0176 165.388 31.5384 164.963 32.091C164.559 32.6225 164.017 33.1326 163.337 33.6216C162.657 34.1105 161.828 34.5144 160.85 34.8332C159.872 35.1308 158.724 35.2796 157.406 35.2796ZM169.537 34.9608C169.303 34.9608 169.101 34.8864 168.931 34.7376C168.782 34.5675 168.708 34.3656 168.708 34.1317V13.151C168.708 12.9171 168.782 12.7258 168.931 12.577C169.101 12.407 169.303 12.3219 169.537 12.3219H174.703C174.915 12.3219 175.106 12.407 175.276 12.577C175.447 12.7258 175.532 12.9171 175.532 13.151V20.1339C176.084 19.4962 176.775 18.9967 177.604 18.6353C178.454 18.2527 179.411 18.0614 180.474 18.0614C181.622 18.0614 182.674 18.3271 183.631 18.8585C184.608 19.3899 185.384 20.1871 185.958 21.2499C186.553 22.3128 186.851 23.652 186.851 25.2675V34.1317C186.851 34.3656 186.766 34.5675 186.596 34.7376C186.426 34.8864 186.235 34.9608 186.022 34.9608H180.825C180.591 34.9608 180.389 34.8864 180.219 34.7376C180.07 34.5675 179.996 34.3656 179.996 34.1317V25.4907C179.996 24.7042 179.804 24.0984 179.422 23.6732C179.039 23.2481 178.497 23.0355 177.795 23.0355C177.094 23.0355 176.541 23.2481 176.137 23.6732C175.733 24.0984 175.532 24.7042 175.532 25.4907V34.1317C175.532 34.3656 175.447 34.5675 175.276 34.7376C175.106 34.8864 174.915 34.9608 174.703 34.9608H169.537Z" fill="#FF4B4B"/>
</svg>
