<svg width="167" height="48" viewBox="0 0 167 48" fill="none" xmlns="http://www.w3.org/2000/svg">
<path d="M12.4024 7.66918C12.8571 8.12148 13.4447 8.41605 14.0789 8.51059C14.7136 8.60512 15.3614 8.49388 15.9281 8.19356C18.4151 6.84553 21.1857 6.10386 24.0143 6.02965C24.661 6.00615 25.2832 5.77478 25.787 5.37C26.2914 4.96523 26.6509 4.40846 26.8126 3.7833C27.0464 2.87922 26.8445 1.9177 26.2663 1.18338C25.6881 0.449039 24.8002 0.0259912 23.8646 0.0395624C20.0931 0.136187 16.3974 1.11861 13.078 2.9069C12.2434 3.35972 11.6731 4.18024 11.5402 5.1188C11.4073 6.05736 11.7269 7.00332 12.4024 7.66918Z" fill="#222222"/>
<path d="M39.841 14.5807C40.1801 15.1275 40.6861 15.5506 41.2846 15.7877C41.8832 16.0254 42.5419 16.064 43.1641 15.8984C44.074 15.6561 44.817 15.0017 45.1712 14.1299C45.5249 13.2587 45.4485 12.2726 44.9645 11.4662C42.983 8.24843 40.2721 5.54034 37.0504 3.55921C36.2426 3.07609 35.2547 2.99983 34.3819 3.3529C33.5086 3.70596 32.853 4.44762 32.6101 5.35582C32.4443 5.97734 32.483 6.63491 32.721 7.23239C32.9586 7.82936 33.3824 8.33443 33.9303 8.67281C36.3383 10.1477 38.3632 12.1695 39.8408 14.5731L39.841 14.5807Z" fill="#222222"/>
<path d="M40.8554 36.07C41.5226 36.738 42.4664 37.0535 43.4021 36.9208C44.3382 36.7881 45.1566 36.223 45.6112 35.3957C47.4085 32.0834 48.398 28.3945 48.499 24.6288C48.5247 23.5591 47.9763 22.5563 47.0607 21.9996C46.145 21.4428 45.0012 21.4156 44.0604 21.9285C43.1191 22.4414 42.5236 23.4165 42.4981 24.4867C42.4248 27.3071 41.6844 30.07 40.3381 32.5508C40.0372 33.1165 39.9258 33.7631 40.02 34.3967C40.1147 35.0297 40.4103 35.6162 40.8629 36.0701L40.8554 36.07Z" fill="#222222"/>
<path d="M1.75108 31.5852C2.01375 32.3065 2.04776 33.0905 1.84893 33.8316L0.866284 37.2761C0.20962 39.4802 0.480656 41.8567 1.6161 43.8576C2.54381 45.4333 3.9696 46.6561 5.67024 47.334C7.3702 48.0119 9.24818 48.1059 11.0079 47.6014L14.4209 46.6278C15.1922 46.3839 16.02 46.3839 16.7912 46.6278C19.2671 47.4959 21.8708 47.9461 24.4949 47.9607C25.2453 47.9607 26.0327 47.9607 26.7904 47.8557C29.9906 47.545 33.094 46.5871 35.9116 45.0405C36.7697 44.4885 37.2877 43.539 37.2868 42.5204C37.2857 41.5015 36.7656 40.553 35.9064 40.0025C35.0478 39.4525 33.9672 39.3757 33.0391 39.7993C30.9335 40.9588 28.6135 41.677 26.2202 41.9109C23.6861 42.1554 21.1285 41.8566 18.719 41.0345C17.7322 40.6789 16.693 40.4887 15.6439 40.4731C14.6764 40.4783 13.7147 40.6172 12.7859 40.8852L9.37289 41.8587V41.8582C8.88888 41.9893 8.37559 41.9579 7.91095 41.7704C7.44631 41.5824 7.05598 41.2476 6.79958 40.8178C6.49243 40.2312 6.43331 39.5465 6.63476 38.9155L7.62473 35.4789C8.15739 33.5662 8.0946 31.5372 7.44473 29.661C5.84308 24.9536 6.29778 19.7908 8.69738 15.4347C9.00294 14.868 9.11754 14.2182 9.0244 13.5822C8.93126 12.9455 8.63511 12.3558 8.17988 11.9004C7.51379 11.2345 6.57302 10.9201 5.63952 11.0511C4.70552 11.1822 3.88825 11.7437 3.43202 12.5668C1.84819 15.4426 0.881207 18.616 0.591874 21.8846C0.302515 25.1536 0.697569 28.4472 1.75137 31.5553L1.75108 31.5852Z" fill="#222222"/>
<path d="M19.9935 18.7588C19.9935 20.4129 18.6504 21.7536 16.9933 21.7536C15.3362 21.7536 13.993 20.4129 13.993 18.7588C13.993 17.1048 15.3362 15.7635 16.9933 15.7635C18.6504 15.7635 19.9935 17.1048 19.9935 18.7588Z" fill="#222222"/>
<path d="M34.9959 18.7587C34.9959 20.4128 33.6528 21.7535 31.9957 21.7535C30.3386 21.7535 28.9955 20.4128 28.9955 18.7587C28.9955 17.1046 30.3386 15.7634 31.9957 15.7634C33.6528 15.7634 34.9959 17.1046 34.9959 18.7587Z" fill="#222222"/>
<path d="M24.2026 33.734H24.7875C27.4817 33.735 29.9985 32.3923 31.4934 30.1547C32.0888 29.2642 32.1621 28.1239 31.6869 27.1646C31.2113 26.2046 30.259 25.5711 29.189 25.5021C28.1185 25.4331 27.093 25.9392 26.498 26.8303C26.1165 27.4011 25.4751 27.7438 24.7874 27.7438H24.2025C23.5149 27.7438 22.8734 27.4011 22.4919 26.8303C21.897 25.9392 20.8714 25.4332 19.8009 25.5021C18.7308 25.571 17.7785 26.2046 17.303 27.1646C16.8278 28.124 16.9011 29.2642 17.4966 30.1547C18.9914 32.3921 21.5082 33.7349 24.2024 33.734H24.2026Z" fill="#222222"/>
<path d="M79.1064 35.3189C77.087 35.3189 75.3226 35.0106 73.8134 34.3942C72.3041 33.7565 71.1137 32.7999 70.2422 31.5245C69.3919 30.249 68.9242 28.6335 68.8392 26.6778C68.8179 25.8063 68.8073 24.871 68.8073 23.8719C68.8073 22.8728 68.8179 21.9163 68.8392 21.0022C68.9242 19.0891 69.4025 17.4948 70.2741 16.2194C71.1668 14.9227 72.3679 13.9555 73.8771 13.3178C75.4076 12.6801 77.1507 12.3612 79.1064 12.3612C80.5093 12.3612 81.8167 12.5313 83.0283 12.8714C84.2612 13.1902 85.356 13.6898 86.3125 14.37C87.2691 15.029 88.0237 15.858 88.5764 16.8571C89.1291 17.8349 89.4161 18.9828 89.4373 20.3007C89.4373 20.492 89.3629 20.6515 89.2141 20.779C89.0866 20.9065 88.9272 20.9703 88.7358 20.9703H83.3472C83.0283 20.9703 82.7945 20.9065 82.6457 20.779C82.4969 20.6515 82.3693 20.4283 82.2631 20.1094C81.9867 19.1953 81.5828 18.5789 81.0514 18.26C80.52 17.9412 79.8716 17.7818 79.1064 17.7818C78.1711 17.7818 77.4271 18.0368 76.8744 18.547C76.3217 19.0359 76.0241 19.9075 75.9816 21.1616C75.9178 22.9047 75.9178 24.6903 75.9816 26.5184C76.0241 27.7726 76.3217 28.6548 76.8744 29.1649C77.4271 29.6538 78.1711 29.8983 79.1064 29.8983C79.8716 29.8983 80.52 29.7282 81.0514 29.3881C81.6041 29.048 82.008 28.4422 82.2631 27.5706C82.3481 27.2305 82.465 27.0073 82.6138 26.901C82.7839 26.7735 83.0283 26.7097 83.3472 26.7097H88.7358C88.9272 26.7097 89.0866 26.7735 89.2141 26.901C89.3629 27.0286 89.4373 27.188 89.4373 27.3793C89.4161 28.6973 89.1291 29.8558 88.5764 30.8549C88.0237 31.8327 87.2691 32.6617 86.3125 33.3419C85.356 34.0009 84.2612 34.5005 83.0283 34.8406C81.8167 35.1594 80.5093 35.3189 79.1064 35.3189ZM100.367 35.3189C98.4962 35.3189 96.9126 35.0425 95.6159 34.4898C94.3405 33.9371 93.3627 33.1294 92.6824 32.0665C92.0022 30.9824 91.6196 29.6857 91.5345 28.1765C91.5133 27.7301 91.5027 27.2412 91.5027 26.7097C91.5027 26.1783 91.5133 25.6894 91.5345 25.243C91.6196 23.7125 92.0235 22.4158 92.7462 21.3529C93.4689 20.2901 94.468 19.4823 95.7435 18.9296C97.0401 18.377 98.5813 18.1006 100.367 18.1006C102.152 18.1006 103.683 18.377 104.958 18.9296C106.255 19.4823 107.265 20.2901 107.988 21.3529C108.71 22.4158 109.114 23.7125 109.199 25.243C109.242 25.6894 109.263 26.1783 109.263 26.7097C109.263 27.2412 109.242 27.7301 109.199 28.1765C109.114 29.6857 108.732 30.9824 108.051 32.0665C107.371 33.1294 106.383 33.9371 105.086 34.4898C103.811 35.0425 102.237 35.3189 100.367 35.3189ZM100.367 30.823C101.153 30.823 101.695 30.5892 101.993 30.1215C102.291 29.6538 102.461 28.9524 102.503 28.017C102.524 27.6982 102.535 27.2624 102.535 26.7097C102.535 26.157 102.524 25.7213 102.503 25.4024C102.461 24.4884 102.291 23.7975 101.993 23.3299C101.695 22.8409 101.153 22.5965 100.367 22.5965C99.6016 22.5965 99.0702 22.8409 98.7726 23.3299C98.475 23.7975 98.2943 24.4884 98.2305 25.4024C98.2093 25.7213 98.1986 26.157 98.1986 26.7097C98.1986 27.2624 98.2093 27.6982 98.2305 28.017C98.2943 28.9524 98.475 29.6538 98.7726 30.1215C99.0702 30.5892 99.6016 30.823 100.367 30.823ZM112.833 35C112.6 35 112.398 34.9256 112.228 34.7768C112.079 34.6067 112.004 34.4048 112.004 34.171V19.2485C112.004 19.0147 112.079 18.8234 112.228 18.6746C112.398 18.5045 112.6 18.4195 112.833 18.4195H117.457C117.691 18.4195 117.882 18.5045 118.031 18.6746C118.201 18.8234 118.286 19.0147 118.286 19.2485V20.3964C118.839 19.7587 119.572 19.2166 120.486 18.7702C121.4 18.3238 122.442 18.1006 123.611 18.1006C124.759 18.1006 125.8 18.3663 126.736 18.8978C127.671 19.4292 128.425 20.2263 128.999 21.2892C129.573 22.352 129.86 23.6912 129.86 25.3068V34.171C129.86 34.4048 129.775 34.6067 129.605 34.7768C129.435 34.9256 129.233 35 128.999 35H123.961C123.728 35 123.526 34.9256 123.356 34.7768C123.207 34.6067 123.132 34.4048 123.132 34.171V25.53C123.132 24.7435 122.941 24.1376 122.559 23.7125C122.176 23.2873 121.634 23.0748 120.932 23.0748C120.231 23.0748 119.678 23.2873 119.274 23.7125C118.87 24.1376 118.668 24.7435 118.668 25.53V34.171C118.668 34.4048 118.583 34.6067 118.413 34.7768C118.265 34.9256 118.073 35 117.839 35H112.833ZM142.21 35C140.765 35 139.489 34.7874 138.384 34.3623C137.3 33.9371 136.45 33.2463 135.833 32.2897C135.238 31.3119 134.94 30.0258 134.94 28.4316V23.298H132.421C132.188 23.298 131.986 23.2236 131.816 23.0748C131.667 22.9047 131.592 22.7028 131.592 22.4689V19.2485C131.592 19.0147 131.667 18.8234 131.816 18.6746C131.986 18.5045 132.188 18.4195 132.421 18.4195H134.94V13.1902C134.94 12.9564 135.015 12.7651 135.164 12.6163C135.334 12.4462 135.536 12.3612 135.769 12.3612H140.393C140.627 12.3612 140.818 12.4462 140.967 12.6163C141.137 12.7651 141.222 12.9564 141.222 13.1902V18.4195H145.239C145.473 18.4195 145.665 18.5045 145.813 18.6746C145.983 18.8234 146.068 19.0147 146.068 19.2485V22.4689C146.068 22.7028 145.983 22.9047 145.813 23.0748C145.665 23.2236 145.473 23.298 145.239 23.298H141.222V27.8895C141.222 28.506 141.349 28.9949 141.604 29.3562C141.86 29.6964 142.263 29.8664 142.816 29.8664H145.495C145.728 29.8664 145.92 29.9514 146.068 30.1215C146.239 30.2703 146.324 30.4616 146.324 30.6954V34.171C146.324 34.4048 146.239 34.6067 146.068 34.7768C145.92 34.9256 145.728 35 145.495 35H142.21ZM153.912 35.3189C152.743 35.3189 151.691 35.0957 150.756 34.6493C149.842 34.2029 149.119 33.6077 148.587 32.8637C148.077 32.0984 147.822 31.2481 147.822 30.3128C147.822 28.7823 148.439 27.5813 149.672 26.7097C150.926 25.8169 152.594 25.2005 154.678 24.8604L158.344 24.2864V24.0632C158.344 23.4043 158.238 22.9153 158.026 22.5965C157.834 22.2564 157.42 22.0863 156.782 22.0863C156.336 22.0863 155.974 22.1713 155.698 22.3414C155.422 22.5115 155.166 22.7559 154.933 23.0748C154.72 23.3086 154.444 23.4255 154.104 23.4255H149.608C149.374 23.4255 149.193 23.3617 149.066 23.2342C148.938 23.1067 148.885 22.9366 148.906 22.724C148.928 22.3414 149.087 21.895 149.385 21.3848C149.682 20.8534 150.139 20.3432 150.756 19.8543C151.393 19.3441 152.212 18.9296 153.211 18.6108C154.21 18.2707 155.411 18.1006 156.814 18.1006C158.238 18.1006 159.46 18.26 160.481 18.5789C161.501 18.8978 162.341 19.3442 163 19.9181C163.659 20.492 164.148 21.1935 164.466 22.0225C164.785 22.8303 164.945 23.7337 164.945 24.7328V34.171C164.945 34.4048 164.86 34.6067 164.69 34.7768C164.541 34.9256 164.35 35 164.116 35H159.46C159.248 35 159.057 34.9256 158.886 34.7768C158.716 34.6067 158.631 34.4048 158.631 34.171V33.1506C158.355 33.5758 157.983 33.9478 157.515 34.2666C157.069 34.5855 156.538 34.8406 155.921 35.0319C155.326 35.2232 154.656 35.3189 153.912 35.3189ZM155.762 31.1418C156.293 31.1418 156.75 31.0356 157.133 30.823C157.537 30.5892 157.856 30.2384 158.089 29.7708C158.323 29.3031 158.44 28.7185 158.44 28.017V27.7938L156.144 28.2402C155.358 28.389 154.805 28.6122 154.486 28.9098C154.167 29.1862 154.008 29.4944 154.008 29.8345C154.008 30.0896 154.082 30.3128 154.231 30.5041C154.38 30.6954 154.582 30.8549 154.837 30.9824C155.113 31.0887 155.422 31.1418 155.762 31.1418Z" fill="#222222"/>
</svg>
